# Blender 4.5.7 LTS
# www.blender.org
mtllib A.mtl
o A
v 0.015963 0.453900 0.015000
v 0.007327 0.453900 0.015000
v 0.005350 0.463439 0.015000
v -0.005483 0.463439 0.015000
v -0.007615 0.453900 0.015000
v -0.014580 0.453900 0.015000
v -0.003660 0.501534 0.015000
v 0.005503 0.501534 0.015000
v 0.003482 0.472483 0.015000
v 0.000032 0.488805 0.015000
v -0.003506 0.472483 0.015000
v 0.015963 0.453900 0.010000
v 0.007327 0.453900 0.010000
v 0.005350 0.463439 0.010000
v -0.005483 0.463439 0.010000
v -0.007615 0.453900 0.010000
v -0.014580 0.453900 0.010000
v -0.003660 0.501534 0.010000
v 0.005503 0.501534 0.010000
v 0.003482 0.472483 0.010000
v 0.000032 0.488805 0.010000
v -0.003506 0.472483 0.010000
vn -0.0000 -0.0000 1.0000
vn -0.0000 -0.0000 -1.0000
vn -0.9747 0.2235 -0.0000
vn -0.0000 1.0000 -0.0000
vn 0.9767 0.2145 -0.0000
vn 0.9773 -0.2118 -0.0000
vn -0.9784 -0.2068 -0.0000
vn -0.0000 -1.0000 -0.0000
vn 0.9759 -0.2181 -0.0000
vn -0.9792 -0.2030 -0.0000
vt 0.054148 0.857275
vt 0.037907 0.857275
vt 0.018552 0.772848
vt 0.038180 0.805785
vt 0.044450 0.834714
vt 0.050565 0.805785
vt 0.034675 0.789756
vt 0.053875 0.789756
vt 0.057380 0.772848
vt 0.072686 0.772848
vt 0.030897 0.772848
s 1
usemtl Number_plate
f 8/1/1 7/2/1 6/3/1 11/4/1 10/5/1 9/6/1 4/7/1 3/8/1 2/9/1 1/10/1
f 4/7/1 9/6/1 11/4/1 6/3/1 5/11/1
f 19/1/2 12/10/2 13/9/2 14/8/2 15/7/2 20/6/2 21/5/2 22/4/2 17/3/2 18/2/2
f 15/7/2 16/11/2 17/3/2 22/4/2 20/6/2
f 6/3/3 7/2/3 18/2/3 17/3/3
f 7/2/4 8/1/4 19/1/4 18/2/4
f 8/1/5 1/10/5 12/10/5 19/1/5
f 10/5/6 11/4/6 22/4/6 21/5/6
f 9/6/7 10/5/7 21/5/7 20/6/7
f 11/4/4 9/6/4 20/6/4 22/4/4
f 3/8/8 4/7/8 15/7/8 14/8/8
f 5/11/8 6/3/8 17/3/8 16/11/8
f 4/7/9 5/11/9 16/11/9 15/7/9
f 2/9/10 3/8/10 14/8/10 13/9/10
f 1/10/8 2/9/8 13/9/8 12/10/8
